<svg id="_x31__x2C_5" enable-background="new 0 0 36 36" height="512" viewBox="0 0 36 36" width="512" xmlns="http://www.w3.org/2000/svg"><path d="m8.377 31.833c6.917 0 11.667 3.583 15 3.583s10.333-1.916 10.333-17.249-9.417-17.584-13.083-17.584c-17.167 0-24.5 31.25-12.25 31.25z" fill="#f3f3f1"/><g fill="#a4afc1"><path d="m9.283 1.717h2v1h-2z" transform="matrix(.707 -.707 .707 .707 1.444 7.921)"/><path d="m5.217 5.783h2v1h-2z" transform="matrix(.707 -.707 .707 .707 -2.622 6.236)"/><path d="m5.894 1.217h1v2h-1z" transform="matrix(.707 -.707 .707 .707 .304 5.169)"/></g><path d="m29.25 16.63v10.12c0 .83-.67 1.5-1.5 1.5h-19.5c-.83 0-1.5-.67-1.5-1.5v-10.12l3 1.57h.01l7.31 3.82c.58.3 1.28.3 1.86 0l7.31-3.82h.01z" fill="#efefef"/><path d="m29.25 14.65v1.98l-3 1.57v-6.05l2.21 1.18c.48.26.79.77.79 1.32z" fill="#efefef"/><path d="m9.75 12.15v6.05l-3-1.57v-1.98c0-.55.31-1.06.79-1.32z" fill="#efefef"/><path d="m26.25 8.75v9.45h-.01l-7.31 3.82c-.58.3-1.28.3-1.86 0l-7.31-3.82h-.01v-9.45c0-1.1.9-2 2-2h12.5c1.1 0 2 .9 2 2z" fill="#2fdf84"/><path d="m9 26.75v-8.943l-2.25-1.177v10.12c0 .83.67 1.5 1.5 1.5h2.25c-.83 0-1.5-.67-1.5-1.5z" fill="#d5dbe1"/><path d="m19.32 22.02c.58.3 1.28.3 1.86 0l7.31-3.82h.01l.75-.393v-1.177l-3 1.57h-.01l-7.115 3.718z" fill="#d5dbe1"/><path d="m12.01 18.2h-.01v-9.45c0-1.1.9-2 2-2h-2.25c-1.1 0-2 .9-2 2v9.45h.01l7.31 3.82c.58.3 1.28.3 1.86 0l.195-.102z" fill="#00b871"/><path d="m27.75 29h-19.5c-1.24 0-2.25-1.009-2.25-2.25v-12.1c0-.827.453-1.585 1.184-1.979l2.213-1.182c.366-.195.82-.056 1.015.308.195.366.058.82-.308 1.015l-2.21 1.18c-.239.128-.394.387-.394.658v12.1c0 .414.337.75.75.75h19.5c.413 0 .75-.336.75-.75v-12.1c0-.271-.155-.53-.396-.66l-2.207-1.178c-.365-.195-.503-.649-.308-1.015.194-.364.65-.503 1.015-.308l2.21 1.18c.733.396 1.186 1.154 1.186 1.981v12.1c0 1.241-1.01 2.25-2.25 2.25z"/><path d="m17.999 22.995c-.438 0-.875-.103-1.273-.309l-10.324-5.392c-.367-.191-.509-.645-.317-1.012.191-.366.643-.511 1.013-.317l10.32 5.39c.362.188.801.188 1.167-.002l10.317-5.388c.37-.193.821-.049 1.013.317.191.367.05.82-.317 1.012l-10.32 5.39c-.402.208-.84.311-1.279.311z"/><path d="m26.25 18.95c-.414 0-.75-.336-.75-.75v-9.45c0-.689-.561-1.25-1.25-1.25h-12.5c-.689 0-1.25.561-1.25 1.25v9.45c0 .414-.336.75-.75.75s-.75-.336-.75-.75v-9.45c0-1.516 1.233-2.75 2.75-2.75h12.5c1.517 0 2.75 1.234 2.75 2.75v9.45c0 .414-.336.75-.75.75z"/><path d="m21.25 15.5c-.173 0-.347-.059-.488-.181-.314-.27-.351-.743-.081-1.058l1.081-1.261-1.081-1.262c-.27-.314-.233-.788.081-1.058.315-.269.788-.232 1.058.081l1.5 1.75c.241.281.241.695 0 .977l-1.5 1.75c-.149.173-.359.262-.57.262z"/><path d="m14.75 15.5c-.211 0-.421-.089-.569-.262l-1.5-1.75c-.241-.281-.241-.695 0-.977l1.5-1.75c.271-.313.744-.351 1.058-.081s.351.743.081 1.058l-1.082 1.262 1.081 1.262c.27.314.233.788-.081 1.058-.141.12-.315.18-.488.18z"/><path d="m17.251 17c-.057 0-.113-.006-.17-.019-.403-.093-.655-.496-.562-.899l1.5-6.5c.094-.405.5-.652.899-.563.403.093.655.496.562.899l-1.5 6.5c-.08.348-.388.582-.729.582z"/></svg>